# xmcd CD database file
#
# Track frame offsets:
#	150
#	27917
#	51555
#	84980
#	112955
#	139330
#	154627
#	183497
#	207807
#
# Disc length: 3270 seconds
#
# Revision: 0
# Processed by: cddbd v1.5.1PL0 Copyright (c) Steve Scherf et al.
# Submitted via: CDex 1.51
#
DISCID=750cc409
DTITLE=PHIL WOODS QUINTET - YOU AND THE NIGHT AND THE MUSIC
DYEAR=1993
DGENRE=Jazz
TTITLE0=YOU AND THE NIGHT AND THE MUSIC
TTITLE1=HIS EYES,HER EYES
TTITLE2=INVITATION
TTITLE3=I'LL NEVER STOP LOVING YOU
TTITLE4=ON GREEN DOLPHIN STREET
TTITLE5=LAURA
TTITLE6=YOU STEPPED OUT OF A DREAM
TTITLE7=FLYING DOWN TO RIO
TTITLE8=AN AFFAIR TO REMEMBER
EXTD=YEAR: 1993
EXTT0=
EXTT1=
EXTT2=
EXTT3=
EXTT4=
EXTT5=
EXTT6=
EXTT7=
EXTT8=
PLAYORDER=
